<svg xmlns="http://www.w3.org/2000/svg" width="440" height="196" viewBox="0 0 440 196" role="img" aria-label="Most used languages by bytes of code across public repositories: Python 42%, JavaScript 23%, HTML 14%, TypeScript 9%, CSS 7%, PowerShell 2%.">
  <title>Most used languages</title>
  <defs>
    <linearGradient id="cBg" x1="0%" y1="0%" x2="100%" y2="100%"><stop offset="0%" stop-color="#F7FBFE"/><stop offset="60%" stop-color="#EAF3FA"/><stop offset="100%" stop-color="#DDEBF6"/></linearGradient>
    <linearGradient id="cEdge" x1="0%" y1="0%" x2="100%" y2="0%"><stop offset="0%" stop-color="#0E7490" stop-opacity="0.9"/><stop offset="100%" stop-color="#047857" stop-opacity="0.25"/></linearGradient>
  </defs>
  <rect width="440" height="196" rx="14" fill="url(#cBg)"/>
  <rect x="0.5" y="0.5" width="439" height="195" rx="13.5" fill="none" stroke="#CBD5E1"/>
  <rect x="18" y="0" width="86" height="2" fill="url(#cEdge)"/>
  <text x="24" y="34" font-family="'SF Mono', 'JetBrains Mono', Consolas, 'Courier New', monospace" font-size="11" letter-spacing="1.6" fill="#0E7490">LANGUAGES  ·  BY  BYTES</text>
  <defs><clipPath id="lBar"><rect x="24" y="52" width="392" height="12" rx="6"/></clipPath></defs>
  <g clip-path="url(#lBar)">
    <rect x="24.0" y="52" width="167.5" height="12" fill="#0E7490"/>
    <rect x="191.5" y="52" width="92.7" height="12" fill="#047857"/>
    <rect x="284.2" y="52" width="56.8" height="12" fill="#1D4ED8"/>
    <rect x="341.0" y="52" width="38.0" height="12" fill="#B45309"/>
    <rect x="379.0" y="52" width="28.0" height="12" fill="#0891B2"/>
    <rect x="407.1" y="52" width="8.9" height="12" fill="#475569"/>
  </g>
  <circle cx="29" cy="96" r="5" fill="#0E7490"/>
  <text x="41" y="100" font-family="'Segoe UI', Roboto, 'Helvetica Neue', Arial, sans-serif" font-size="12.5" fill="#1E293B">Python</text>
  <text x="194" y="100" text-anchor="end" font-family="'SF Mono', 'JetBrains Mono', Consolas, 'Courier New', monospace" font-size="11" fill="#64748B">42.7%</text>
  <circle cx="225" cy="96" r="5" fill="#047857"/>
  <text x="237" y="100" font-family="'Segoe UI', Roboto, 'Helvetica Neue', Arial, sans-serif" font-size="12.5" fill="#1E293B">JavaScript</text>
  <text x="390" y="100" text-anchor="end" font-family="'SF Mono', 'JetBrains Mono', Consolas, 'Courier New', monospace" font-size="11" fill="#64748B">23.6%</text>
  <circle cx="29" cy="124" r="5" fill="#1D4ED8"/>
  <text x="41" y="128" font-family="'Segoe UI', Roboto, 'Helvetica Neue', Arial, sans-serif" font-size="12.5" fill="#1E293B">HTML</text>
  <text x="194" y="128" text-anchor="end" font-family="'SF Mono', 'JetBrains Mono', Consolas, 'Courier New', monospace" font-size="11" fill="#64748B">14.5%</text>
  <circle cx="225" cy="124" r="5" fill="#B45309"/>
  <text x="237" y="128" font-family="'Segoe UI', Roboto, 'Helvetica Neue', Arial, sans-serif" font-size="12.5" fill="#1E293B">TypeScript</text>
  <text x="390" y="128" text-anchor="end" font-family="'SF Mono', 'JetBrains Mono', Consolas, 'Courier New', monospace" font-size="11" fill="#64748B">9.7%</text>
  <circle cx="29" cy="152" r="5" fill="#0891B2"/>
  <text x="41" y="156" font-family="'Segoe UI', Roboto, 'Helvetica Neue', Arial, sans-serif" font-size="12.5" fill="#1E293B">CSS</text>
  <text x="194" y="156" text-anchor="end" font-family="'SF Mono', 'JetBrains Mono', Consolas, 'Courier New', monospace" font-size="11" fill="#64748B">7.2%</text>
  <circle cx="225" cy="152" r="5" fill="#475569"/>
  <text x="237" y="156" font-family="'Segoe UI', Roboto, 'Helvetica Neue', Arial, sans-serif" font-size="12.5" fill="#1E293B">PowerShell</text>
  <text x="390" y="156" text-anchor="end" font-family="'SF Mono', 'JetBrains Mono', Consolas, 'Courier New', monospace" font-size="11" fill="#64748B">2.3%</text>
</svg>
